<?xml version="1.0" encoding="utf-8"?>
<!-- Generator: Adobe Illustrator 22.1.0, SVG Export Plug-In . SVG Version: 6.00 Build 0)  -->
<svg version="1.1" id="Layer_1" xmlns="http://www.w3.org/2000/svg" xmlns:xlink="http://www.w3.org/1999/xlink" x="0px" y="0px"
	 viewBox="0 0 360 117" style="enable-background:new 0 0 360 117;" xml:space="preserve">
<style type="text/css">
	.st0{opacity:0.5;fill:#FFFFFF;enable-background:new    ;}
	.st1{display:none;}
	.st2{display:inline;opacity:0.6;fill:#FFFFFF;enable-background:new    ;}
	.st3{display:inline;opacity:0.5;fill:#FFFFFF;enable-background:new    ;}
	.st4{display:none;opacity:0.5;}
	.st5{display:inline;fill:#FFFFFF;}
</style>
<g>
	<path class="st0" d="M23.4,42.1H34c0,0.5,0,0.7,0,0.9c0,0.2,0,0.5,0,0.9h-5.8v12.4h5.3c0,0.5,0,0.9,0,0.9c0,0.2,0,0.5,0,0.9h-5.3
		v14.5H34c0,0.5,0,0.7,0,0.9s0,0.5,0,0.9H23.4V42.1z"/>
	<path class="st0" d="M47.3,73V43.5c0.9,0,1.4,0,1.6,0.2c0.5,0.2,0.7,0.7,0.7,1.4c0.2,1.4,0.2,3,0.2,6.5c0,3,0,5.3,0,7.1
		c0,3.2,0,6.5-0.2,9.2c0,2.3-0.2,3.5-0.5,4.1C49.2,72.8,48.3,73,47.3,73L47.3,73z M42.3,74.2h4.6c3,0,4.8-0.2,5.8-1.4
		c0.9-0.9,1.4-1.8,1.6-3c0.7-2.8,0.9-7.1,0.9-12.7c0-7.8-0.7-11.8-2.3-13.4c-1.2-1.2-3-1.6-6-1.6h-4.6V74.2z"/>
	<path class="st0" d="M63.5,42.1c1.4,0,2.1,0,2.8,0s1.6,0,2.8,0l2.8,20.7l2.5-20.7c1.4,0,2.3,0,3,0c0.7,0,1.6,0,2.8,0v32
		c-1.2,0-1.8,0-2.3,0c-0.5,0-1.2,0-2.3,0V49.7L72,74.4c-0.7,0-1.2,0-1.4,0s-0.9,0-1.6,0L65.3,49l0.5,25.4c-0.5,0-0.9,0-1.2,0
		s-0.7,0-1.2,0C63.5,74.4,63.5,42.1,63.5,42.1z"/>
	<path class="st0" d="M102,58.3c0-5.5-0.2-9-0.7-11.5c-0.2-1.2-0.7-2.3-1.4-3.2c-0.9-0.9-3-1.8-4.8-1.8c-3,0-5.5,2.1-6.2,5.3
		c-0.5,2.5-0.7,6-0.7,11.5c0,5.3,0.2,8.8,0.7,11.3c0.2,1.2,0.7,2.3,1.4,3.2c0.9,1.4,3.2,2.1,4.8,2.1c3,0,5.5-2.1,6.2-5.3
		C101.7,67.3,102,63.6,102,58.3 M96.7,58.3v6.2c0,4.1-0.2,6-0.2,6.9c0,1.8-0.9,2.1-1.2,2.1c-0.7,0-1.2-0.5-1.4-2.1
		c-0.2-2.5-0.2-3.5-0.2-6.9c0-3,0-5.1,0-6.2c0-1.4,0-3.5,0-6.2c0-2.1,0-3.5,0-4.6c0-0.7,0-1.6,0.2-2.5c0-1.6,0.7-2.1,1.4-2.1
		c0.7,0,1.2,0.5,1.4,2.1c0.2,2.8,0.2,3.9,0.2,7.1L96.7,58.3z"/>
	<path class="st0" d="M161,58.7c0-5.5-0.2-9-0.7-11.5c-0.2-1.2-0.7-2.3-1.4-3.2c-0.9-1.2-3.2-2.1-4.8-2.1c-3,0-5.5,2.1-6.2,5.3
		c-0.5,2.5-0.7,6-0.7,11.5c0,5.3,0.2,8.8,0.7,11.3c0.2,1.2,0.7,2.3,1.4,3.2c0.9,1.4,3.2,2.1,4.8,2.1c3,0,5.5-2.1,6.2-5.3
		C160.8,67.7,161,64,161,58.7 M155.7,58.7V65c0,4.1-0.2,6-0.2,6.9c0,1.8-0.9,2.1-1.2,2.1c-0.7,0-1.2-0.5-1.4-2.1
		c-0.2-2.5-0.2-3.5-0.2-6.9c0-3,0-5.1,0-6.2c0-1.4,0-3.5,0-6.2c0-2.1,0-3.5,0-4.6c0-0.7,0-1.6,0.2-2.5c0-1.6,0.7-2.1,1.4-2.1
		s1.2,0.5,1.4,2.1c0.2,2.8,0.2,3.9,0.2,7.1L155.7,58.7z"/>
	<path class="st0" d="M237.3,58.3c0-5.5-0.2-9-0.7-11.5c-0.2-1.2-0.7-2.3-1.4-3.2c-0.9-0.9-3-1.8-4.8-1.8c-3,0-5.5,2.1-6.2,5.3
		c-0.5,2.5-0.7,6-0.7,11.5c0,5.3,0.2,8.8,0.7,11.3c0.2,1.2,0.7,2.3,1.4,3.2c0.9,1.4,3.2,2.1,4.8,2.1c3,0,5.5-2.1,6.2-5.3
		C237.1,67.3,237.3,63.6,237.3,58.3 M232,58.3v6.2c0,4.1-0.2,6-0.2,6.9c0,1.8-0.9,2.1-1.2,2.1c-0.7,0-1.2-0.5-1.4-2.1
		c-0.2-2.5-0.2-3.5-0.2-6.9c0-3,0-5.1,0-6.2c0-1.4,0-3.5,0-6.2c0-2.1,0-3.5,0-4.6c0-0.7,0-1.6,0.2-2.5c0-1.6,0.7-2.1,1.4-2.1
		c0.7,0,1.2,0.5,1.4,2.1c0.2,2.8,0.2,3.9,0.2,7.1L232,58.3z"/>
	<path class="st0" d="M110.3,42.1c1.2,0,2.1,0,2.8,0c0.7,0,1.4,0,2.5,0l3.7,24.2l-0.5-24.2c0.5,0,0.9,0,1.2,0c0.2,0,0.7,0,1.2,0v32
		c-1.4,0-2.1,0-2.5,0c-0.7,0-1.4,0-2.8,0l-3.7-23.1l0.2,23.1c-0.9,0-0.9,0-1.2,0s-0.5,0-0.9,0V42.1L110.3,42.1z"/>
	<path class="st0" d="M169.5,42.1c1.2,0,2.1,0,2.8,0s1.4,0,2.5,0l3.7,24.2l-0.2-24.2c0.5,0,0.9,0,1.2,0s0.7,0,1.2,0v32
		c-1.4,0-2.1,0-2.5,0c-0.7,0-1.4,0-2.8,0l-3.7-23.1l0.2,23.1c-0.9,0-0.9,0-1.2,0s-0.5,0-0.9,0L169.5,42.1L169.5,42.1z"/>
	<path class="st0" d="M286.8,42.1c1.2,0,2.1,0,2.8,0s1.4,0,2.5,0l3.7,24.2l-0.5-24.2c0.5,0,0.9,0,1.2,0s0.7,0,1.2,0v32
		c-1.4,0-2.1,0-2.5,0c-0.7,0-1.4,0-2.8,0l-3.7-23.1l0.2,23.1c-0.9,0-0.9,0-1.2,0c-0.2,0-0.5,0-0.9,0V42.1L286.8,42.1z"/>
	<path class="st0" d="M132.4,44.4h-3.7c0-0.9,0,0,0,0c0-1.8,0-1.4,0-1.8h12.2c0,0.5,0,0,0,0.2s0,1.6,0,1.6h-3.7v30.2
		c-1.2,0-2.1,0-2.5,0c-0.7,0-1.4,0-2.3,0C132.4,74.6,132.4,44.4,132.4,44.4z"/>
	<path class="st0" d="M213.1,42.1c0.7,0,1.4,0,2.5,0v23.5c0,6.5-1.8,9.2-6,9.2c-4.1,0-6.5-2.8-6.5-9.2v-0.9c1.2,0,1.6,0,2.3,0
		c2.3,0,1.6,0,2.5,0v3c0,0.5,0,1.2,0,2.3c0,0.7,0,1.2,0,1.6c0.2,1.8,0.7,2.1,1.4,2.1c0.5,0,0.7-0.5,0.9-1.2c0-0.2,0-0.7,0-1.2
		c0-1.2,0-3,0-3.7V42.4C211.7,42.4,212.4,42.1,213.1,42.1"/>
	<path class="st0" d="M247.9,42.1c0.5,0,1.4,0,2.5,0v27.4c0,1.8,0.9,3,2.5,3c1.6,0,2.5-1.2,2.5-3.7l-0.2-26.7c0.5,0,0.9,0,1.2,0
		c0.2,0,0.7,0,1.2,0v25.1c0,2.5-0.2,3.7-0.7,4.8c-0.9,1.6-2.8,2.8-5.1,2.8c-1.4,0-3-0.5-3.9-1.2c-1.6-1.2-2.1-2.8-2.1-6.2V42.1
		C246.7,42.4,247.4,42.1,247.9,42.1"/>
	<path class="st0" d="M271.2,58V43.5c1.4,0,2.3,0.7,2.5,2.3c0.2,1.4,0.2,3.5,0.2,5.8C273.9,56.4,273,58,271.2,58L271.2,58L271.2,58z
		 M266.3,74.2c1.2,0,1.8,0,2.5,0c0.5,0,1.4,0,2.3,0v-15l3.5,15.2c1.4,0,1.8,0,2.3,0s1.2,0,2.3,0l-3.9-16.1c2.3-1.4,3.5-3.2,3.5-7.6
		c0-6-2.3-8.3-7.4-8.3h-5.3v31.8H266.3z"/>
	<path class="st0" d="M312.7,64h-3.5l1.8-12.9L312.7,64z M312.7,65.9l1.2,8.5c1.2,0,1.8,0,2.3,0c0.7,0,1.2,0,2.3,0l-4.4-32
		c-0.9,0-1.6,0-1.8,0s-1.2,0-2.1,0l-4.8,32c0.5,0,0.9,0,1.2,0c0.2,0,0.5,0,1.2,0l1.2-8.5H312.7z"/>
	<path class="st0" d="M326.5,42.1c1.2,0,1.8,0,2.3,0s1.4,0,2.5,0v30.4h5.3v0.9v0.9h-10.1L326.5,42.1L326.5,42.1z"/>
</g>
<g class="st1">
	<path id="uofa_logo" class="st2" d="M107.8,82.2c2.8-0.1,3.6-0.5,5.8-6l9-21.9h0.7l11,24.9c1.1,2.4,2,3,4.1,3v1.3
		c-2.8,0-4.6-0.1-6.2-0.1s-3.3,0.1-6.4,0.1v-1.5c2.4,0,3-0.4,3-1.5c0-0.4-0.3-1.3-1.2-3.3l-1.6-3.7h-8.9l-1.3,3.3
		c-1.1,2.8-1.1,3.3-1.1,3.8c0,1.1,0.3,1.5,2.9,1.6v1.2c-3.7-0.1-4.1-0.1-5-0.1c-1.1,0-1.5,0-4.9,0.1L107.8,82.2L107.8,82.2z
		 M125.4,71.8l-4-9.5l-3.4,9.5L125.4,71.8L125.4,71.8z M268,82.2c2.8-0.1,3.6-0.5,5.8-6l9-21.9h0.7l11,24.9c1.1,2.4,2,3,4.1,3v1.3
		c-2.8,0-4.6-0.1-6.2-0.1c-1.6,0-3.3,0.1-6.4,0.1v-1.5c2.4,0,3-0.4,3-1.5c0-0.4-0.3-1.3-1.2-3.3l-1.6-3.7h-8.9l-1.3,3.3
		c-1.1,2.8-1.1,3.3-1.1,3.8c0,1.1,0.3,1.5,2.9,1.6v1.2c-3.7-0.1-4.1-0.1-5-0.1c-1.1,0-1.5,0-4.9,0.1V82.2L268,82.2z M285.6,71.8
		l-4-9.5l-3.4,9.5L285.6,71.8L285.6,71.8z M140.8,82.2v1.5c0.8-0.1,1.7-0.1,3-0.1c3.8,0,7.8,0,11.1,0c3.4,0,6.5,0,8.5,0.1l0.7-7.7
		h-1.3c-0.8,5-3.4,5.7-8.9,5.7c-3.3,0-4.5-0.7-4.5-2.8V59c0-2.3,0.8-3.3,3.3-3.3v-1.5c-3.3,0.1-4.6,0.1-6,0.1c-1.3,0-2.7,0-6-0.1
		v1.5c2.7,0,3.3,1.1,3.3,3.3v19.9C144.1,81.2,143.4,82.2,140.8,82.2L140.8,82.2z M166.1,82.2c2.7,0,3.3-1.1,3.3-3.3V59
		c0-2.3-0.8-3.3-3.3-3.3v-1.5c2,0.1,3.6,0.1,5.2,0.1c2.5,0,5-0.1,7.6-0.1c4.2,0,9.4,1.5,9.4,7.4c0,3.2-2.5,5.8-6.9,6.5v0.1
		c4.9,0.7,8,2.8,8,7.6c0,2.3-0.9,4.4-2.3,5.6c-1.7,1.6-3.7,2.3-8.2,2.3c-2.8,0-6.1-0.1-8.2-0.1c-1.9,0-3.3,0-4.6,0.1L166.1,82.2
		L166.1,82.2z M174.7,67.8h2c4.1,0,6.5-1.6,6.5-5.3c0-4.2-2.3-6.6-6.6-6.6h-1.9V67.8L174.7,67.8z M174.7,79.4c0,2,0.8,2.5,3.4,2.5
		c3.8,0,5.8-1.9,5.8-5.3c0-4.6-3.3-7.3-8.7-7.3h-0.5V79.4L174.7,79.4z M193.3,82.2v1.5c0.8,0,3.3-0.1,6.4-0.1
		c6.4,0,11.5,0.1,15.5,0.1c0-2.1,0.4-5.7,0.7-7.7h-1.3c-0.9,5.2-3.8,6-8,6c-3.8,0-4.6-1.1-4.6-2.9v-9.5h3c3.6,0,4.5,0.7,4.5,4h1.3
		c0-1.6-0.1-3.2-0.1-5c0-1.3,0-2.8,0.1-4.4h-1.3c-0.3,2.5-0.8,3.8-4.5,3.8h-3.2V56.2h3.6c4.9,0,6.6,1.3,7.3,5.3h1.3l-0.1-7.2
		c-3.8,0-8.7,0.1-15,0.1c-2.1,0-4.1-0.1-5.4-0.1v1.5c2.7,0,3.3,1.1,3.3,3.3V79C196.6,81.2,195.8,82.2,193.3,82.2L193.3,82.2z
		 M219.8,82.2c2.7,0,3.3-1.1,3.3-3.3V59c0-2.3-0.8-3.3-3.3-3.3v-1.5c1.9,0,3.6,0.1,5,0.1c2.7,0,5.3-0.1,8-0.1c7,0,9.3,3.8,9.3,7.8
		c0,2.8-1.7,5.8-5.7,7l5,9.4c1.9,3.4,2.8,4.1,5.2,4.5v0.9c-0.7,0-1.2,0.1-1.9,0.1c-5.4,0-7.7-1.9-9.9-6.8l-1.6-3.3
		c-1.7-3.6-2.3-3.8-5-4v8.9c0,2.3,0.8,3.3,3.3,3.3v1.5c-3.3-0.1-4.6-0.1-6-0.1c-1.3,0-2.7,0-6,0.1v-1.5H219.8z M228.2,68.4
		c0.8,0.1,1.9,0.3,2.7,0.3c3.7,0,5.8-1.6,5.8-5.6c0-2.9-1.5-7.4-6.8-7.4c-0.8,0-1.2,0-1.7,0.1V68.4L228.2,68.4z M252.5,82.2v1.5
		c3.3-0.1,4.6-0.1,6-0.1s2.7,0,6,0.1v-1.5c-2.7,0-3.3-1.1-3.3-3.3V56.4h3.6c3.3,0,5.4,0.9,5.7,6h1.5l-0.3-8.3
		c-4.4,0-8.7,0.1-13.1,0.1c-4.4,0-8.7-0.1-13.1-0.1l-0.3,8.3h1.5c0.3-5.2,2.4-6,5.7-6h3.6v22.4C255.8,81.2,255.1,82.2,252.5,82.2
		L252.5,82.2z M123.7,48.5c2.8,0,5-1.9,5-4.8v-8.6h-3.3v8.5c0,1.2-0.7,2-1.7,2c-1.1,0-1.7-0.7-1.7-2v-8.5h-3.3v8.6
		C118.7,46.6,120.9,48.5,123.7,48.5L123.7,48.5z M142.4,48.4h2.8V35.1h-3.3v6.6l-4.2-6.6h-2.8v13.3h3.3v-6.6L142.4,48.4L142.4,48.4z
		 M151.5,48.4h3.3V35.1h-3.3V48.4L151.5,48.4z M166.5,48.4l4.4-13.3h-3.4l-2.1,7.4l-2.3-7.4h-3.3l4.4,13.3H166.5L166.5,48.4z
		 M175.8,48.4h9v-2.9h-5.7v-2.4h4.9v-2.9h-4.9v-2.3h5.7V35h-9V48.4L175.8,48.4z M197.2,48.4l-2.4-4.9h-1.1v4.9h-3.3V35.1h5.3
		c2.9,0,4.5,2.1,4.5,4.2c0,1.9-1.1,2.9-2.1,3.4l2.9,5.6L197.2,48.4L197.2,48.4z M195.6,38h-1.9v2.7h1.9c0.9,0,1.5-0.7,1.5-1.3
		C197.1,38.7,196.6,38,195.6,38L195.6,38z M210.1,48.5c2.8,0,5.2-1.5,5.2-4.1c0-1.2-0.3-2.3-0.9-2.9c-0.5-0.5-1.5-0.9-2.7-1.1
		l-1.6-0.3c-0.5,0-0.8-0.3-0.9-0.4c-0.3-0.3-0.3-0.4-0.3-0.7c0-0.5,0.5-1.2,1.6-1.2c0.5,0,1.7,0,2.5,0.8l2-2
		c-1.2-1.2-2.5-1.6-4.5-1.6c-3,0-4.9,1.7-4.9,4.2c0,1.2,0.3,2,0.9,2.7c0.5,0.7,1.5,1.1,2.7,1.2l1.6,0.3c0.4,0,0.7,0.1,0.9,0.4
		c0.1,0.3,0.3,0.5,0.3,0.8c0,0.8-0.7,1.2-1.9,1.2c-1.1,0-2.3-0.3-2.9-0.9L205,47C206.5,48.1,208.1,48.5,210.1,48.5L210.1,48.5z
		 M220.9,48.4h3.3V35.1h-3.3V48.4L220.9,48.4z M236.2,38h3.3v-2.9h-9.8V38h3.3v10.3h3.3V38H236.2z M250.9,42.9l4-7.8h-3.6l-2.1,4.8
		l-2.1-4.8h-3.6l4,7.8v5.4h3.3v-5.4H250.9z M274.1,46.9c-0.9,0.9-2.1,1.5-3.7,1.5s-2.8-0.5-3.7-1.5c-1.5-1.5-1.3-3.3-1.3-5.3
		c0-2,0-3.8,1.3-5.3c0.9-0.9,2.1-1.5,3.7-1.5s2.8,0.5,3.7,1.5c1.5,1.5,1.3,3.3,1.3,5.3C275.4,43.7,275.5,45.6,274.1,46.9L274.1,46.9
		z M271.7,38.4c-0.3-0.3-0.7-0.5-1.3-0.5c-0.5,0-1.1,0.3-1.3,0.5c-0.3,0.4-0.5,0.8-0.5,3.3c0,2.4,0.1,2.8,0.5,3.2
		c0.3,0.3,0.7,0.5,1.3,0.5c0.5,0,1.1-0.3,1.3-0.5c0.3-0.4,0.5-0.8,0.5-3.2C272.2,39.4,272,38.8,271.7,38.4L271.7,38.4z M284.4,38
		h5.7v-2.9h-9v13.3h3.3v-5.2h4.9v-2.9h-4.9V38L284.4,38z M82.1,35.8c-0.8-0.4-1.6-0.5-2.5-0.4c-0.3,0.1-0.5,0.1-0.8,0.3
		c-0.5,0.1-0.9,0.3-1.5,0.3c-0.7,0.1-1.3,0.3-2.1,0.3c-0.3,0-0.4,0-0.7,0h-0.7l-0.1,2.3c-0.3,0-0.7,0-0.9,0l-0.7,7.2
		c0.3,0,0.7,0,0.9,0c2.1,0,3.6-0.3,5.7-0.8c0.4-0.1,0.8-0.1,1.1-0.1c0.8,0,1.6,0.1,2.1,0.5c0.1,0.1,0.4,0.1,0.5,0.3
		c0.1-0.1,0.3-0.1,0.5-0.3c0.5-0.3,1.3-0.5,2.1-0.5c0.4,0,0.7,0,1.1,0.1c2.1,0.4,3.6,0.8,5.7,0.8c0.3,0,0.7,0,0.9,0l-0.7-7.2
		c-0.4,0-0.7,0-0.9,0l-0.1-2.3h-0.7c-1.1,0-1.9,0-2.8-0.3c-0.4-0.1-0.9-0.3-1.3-0.4c-0.3,0-0.5-0.1-0.8-0.3
		c-0.9-0.3-1.7-0.1-2.5,0.4c-0.1,0.1-0.3,0.1-0.4,0.3C82.3,35.9,82.2,35.8,82.1,35.8L82.1,35.8z M81.8,42.8
		c-0.8-0.3-1.7-0.3-2.5-0.1l0,0c-1.7,0.4-2.9,0.7-4.5,0.7l0.4-5.8c0.9,0,1.6-0.1,2.5-0.3c0.5-0.1,0.9-0.3,1.5-0.4
		c0.3,0,0.5-0.1,0.8-0.1c0.5-0.1,1.1-0.1,1.6,0.3c0.1,0.1,0.3,0.3,0.4,0.3L81.8,42.8L81.8,42.8z M83.1,37.2c0.1-0.1,0.3-0.3,0.4-0.3
		c0.5-0.3,1.1-0.4,1.6-0.3c0.3,0.1,0.5,0.1,0.8,0.3c0.5,0.1,0.9,0.3,1.5,0.4c0.8,0.1,1.6,0.3,2.4,0.3h0.1l0.4,5.8
		c-1.7,0-2.8-0.3-4.6-0.8c-0.9-0.3-1.7-0.1-2.5,0.1V37.2L83.1,37.2z M102.9,34.7c-5.7-2.8-12.2-4.1-20.4-4.1
		c-8.1,0-14.6,1.3-20.4,4.1l-0.7,0.4v23.7c0,3.8,0.8,13.4,8.2,19.9c6.1,5.3,12.3,7.4,12.6,7.6l0.4,0.1l0.4-0.1
		c0.3-0.1,6.5-2.3,12.6-7.6c7.4-6.4,8.2-16,8.2-19.9V35.1L102.9,34.7L102.9,34.7z M69.5,73.5l1.7-1.7v4.9c-2.1-1.9-3.7-4.1-4.8-6.4
		V69l2.9-2.5l2.7,2.3l-2.5,2.4L68,69.8v2.4L69.5,73.5L69.5,73.5z M76.1,73.5l1.7-1.7v2.8l-1.7,1.7l-1.5-1.5v2.3l1.5,1.5l1.7-1.9v4.5
		c-1.5-0.8-3-1.9-4.8-3.2v-9.3l2.9-2.5l2.7,2.3l-2.5,2.4l-1.5-1.3v2.4L76.1,73.5L76.1,73.5z M82.7,73.4l1.7-1.7v2.7l-1.7,1.7
		l-1.5-1.5V77l1.5,1.5l1.7-1.7v2.4l-1.7,1.7l-1.5-1.5v2.3l1.5,1.5l1.7-1.7v1.5c-0.8,0.4-1.5,0.7-1.9,0.8c-0.5-0.3-1.6-0.7-2.9-1.3
		V69l2.9-2.5l2.7,2.3l-2.5,2.4l-1.5-1.3v2.1L82.7,73.4L82.7,73.4z M89.2,73.5l1.7-1.7v2.8l-1.7,1.7l-1.5-1.5v2.3l1.5,1.5l1.7-1.9v2
		c-1.7,1.2-3.4,2.3-4.8,2.9V69l2.9-2.5l2.7,2.3l-2.5,2.4l-1.5-1.3v2.4L89.2,73.5L89.2,73.5z M95.9,73.5l1.7-1.7v0.4
		c-0.9,1.6-2.3,3.2-3.8,4.5c-0.3,0.3-0.7,0.5-0.9,0.8V69l2.9-2.5l2.7,2.3l-2.5,2.4l-1.5-1.3v2.4L95.9,73.5L95.9,73.5z M100.8,63.6
		c-0.5-0.3-1.1-0.5-1.6-0.9c-0.9-0.7-2-1.3-3.3-1.3c-1.3,0-2.4,0.7-3.3,1.3c-1.1,0.7-2,1.2-3.3,1.2c-1.3,0-2.3-0.7-3.3-1.2
		c-0.9-0.7-2-1.3-3.3-1.3c-1.3,0-2.4,0.7-3.3,1.3c-1.1,0.7-2,1.2-3.3,1.2c-1.3,0-2.3-0.7-3.3-1.2c-0.9-0.7-2-1.3-3.3-1.3
		S67,62,66,62.7c-0.5,0.4-1.1,0.7-1.6,0.9c-0.3-1.2-0.3-2.3-0.4-3.2c0.8-0.3,1.5-0.7,2.3-1.1c0.9-0.7,1.9-1.2,3.2-1.2
		c1.2,0,2.1,0.5,3.2,1.2c1.1,0.7,2.1,1.3,3.4,1.3c1.5,0,2.5-0.7,3.4-1.3c0.9-0.7,1.9-1.2,3.2-1.2c1.2,0,2.1,0.5,3.2,1.2
		c1.1,0.7,2.1,1.3,3.4,1.3c1.5,0,2.5-0.7,3.4-1.3c0.9-0.7,1.9-1.2,3.2-1.2c1.2,0,2.1,0.5,3.2,1.2c0.7,0.4,1.3,0.9,2.3,1.1
		C101,61.3,100.9,62.4,100.8,63.6L100.8,63.6z M101.2,52.2c-2.1-1.3-4-2.8-5.4-4.4c-1.6,1.9-3.8,3.7-6.6,5c-2.8-1.5-5-3.2-6.6-5
		c-1.6,1.9-3.8,3.7-6.6,5c-2.8-1.5-5-3.2-6.6-5c-1.3,1.6-3.2,3-5.4,4.4V36.7c5.3-2.4,11.3-3.6,18.7-3.6c7.4,0,13.4,1.2,18.7,3.6
		V52.2L101.2,52.2z"/>
</g>
<g class="st1">
	<polygon class="st3" points="158.4,77.4 158.4,92.9 154.6,92.9 148.8,83.7 148.8,92.9 145.1,92.9 145.1,77.4 148.8,77.4 
		154.6,86.6 154.6,77.4 	"/>
	<polygon class="st3" points="167.2,89.6 167.2,86.5 174.5,86.5 174.5,83.3 167.2,83.3 167.2,80.7 175.2,80.7 175.2,77.3 
		163.3,77.3 163.3,92.9 175.3,92.9 175.3,89.6 	"/>
	<polygon class="st3" points="194.7,77.4 192.5,86.7 190.2,77.4 186.6,77.4 184.2,86.6 182.1,77.4 178.1,77.4 182.3,92.9 
		186.1,92.9 188.3,83.7 190.7,92.9 194.4,92.9 198.6,77.4 	"/>
	<path class="st3" d="M213.8,85.9c-0.4-0.6-0.9-1-1.3-1.3c-0.5-0.4-1-0.6-1.5-0.7c-0.9-0.2-4.5-1.2-4.8-1.3
		c-0.3-0.2-0.5-0.3-0.6-0.4c-0.1-0.1-0.1-0.3-0.1-0.6s0.1-0.5,0.2-0.6c0.1-0.2,0.2-0.3,0.4-0.4c0.2-0.1,0.4-0.2,0.6-0.2
		c0.2-0.1,0.5-0.1,0.7-0.1c0.4,0,0.7,0.1,1,0.1c0.3,0.1,0.6,0.2,0.8,0.3c0.2,0.1,0.4,0.3,0.6,0.6c0.3,0.4,0.2,1.3,0.2,1.3h3.8
		c0,0,0.1-1.5-0.6-2.7c-0.4-0.7-0.9-1.2-1.4-1.6c-0.6-0.4-1.3-0.7-2-0.9c-0.7-0.2-1.5-0.2-2.3-0.2c-0.7,0-1.4,0.1-2.1,0.3
		c-0.7,0.2-1.3,0.5-1.9,0.9c-0.6,0.4-1,0.9-1.4,1.5c-0.4,0.6-0.6,1.3-0.6,2.1c0,0.7,0.1,1.3,0.4,1.9c0.3,0.5,0.7,1,1.1,1.3
		c0.4,0.4,0.9,0.6,1.5,0.9c0.6,0.2,1.1,0.4,1.7,0.6c0.6,0.1,1.1,0.3,1.6,0.4s1,0.2,1.4,0.4c0.4,0.1,0.7,0.4,0.9,0.6
		c0.2,0.2,0.3,0.4,0.3,0.7c0,0.3-0.1,0.6-0.2,0.7c-0.2,0.2-0.4,0.4-0.6,0.5s-0.6,0.2-0.9,0.2c-0.3,0.1-0.6,0.1-0.9,0.1
		c-0.4,0-0.8-0.1-1.2-0.1c-0.4-0.1-0.7-0.2-1-0.4c-0.2-0.2-0.5-0.4-0.6-0.7c-0.2-0.3-0.2-1.5-0.2-1.5h-3.8c0,0-0.1,1.7,0.6,2.9
		c0.4,0.7,0.9,1.3,1.5,1.8c0.6,0.4,1.3,0.8,2.1,1c0.8,0.2,1.7,0.3,2.5,0.3c1,0,2-0.1,2.8-0.4c0.8-0.2,1.5-0.6,2.1-1
		c0.6-0.4,1-1,1.3-1.7c0.3-0.6,0.4-1.3,0.4-2C214.4,87.3,214.2,86.6,213.8,85.9"/>
	<path class="st3" d="M128.3,65.1h5.2c-0.3,0.6-0.7,1.2-1.1,1.7c-0.2,0.2-0.4,0.4-0.6,0.6c-0.1,0.1-0.3,0.2-0.4,0.3
		c-0.9,0.7-2,1-3.1,1c-3.3,0-6-3.2-6-7.2s2.7-7.2,6-7.2c2.1,0,4.2,1.1,5.2,3.4h5c-0.2-1.5-0.9-2.9-1.7-4.1c-0.6-0.8-1.2-1.5-1.9-2.1
		c-0.9-0.7-1.9-1.2-3.1-1.6c-1.1-0.4-2.3-0.6-3.4-0.6c-1.8,0-3.4,0.3-4.8,0.9c-1.4,0.6-2.6,1.5-3.6,2.6c-1,1.1-1.7,2.4-2.3,3.9
		c-0.5,1.5-0.7,3.1-0.7,4.8c0,1.7,0.2,3.2,0.8,4.7c0.5,1.5,1.3,2.8,2.3,3.8c1,1.1,2.2,2,3.6,2.6s3,0.9,4.8,0.9
		c1.2,0,2.3-0.2,3.4-0.7c0.8-0.3,1.5-0.9,2.3-1.5V73h4.5V60.5h-10.4V65.1z M204.1,57.9c-0.5-0.7-1.1-1.2-1.8-1.5
		c-0.7-0.4-1.5-0.6-2.4-0.7c-0.9-0.1-1.7-0.2-2.5-0.2c-0.9,0-1.8,0.1-2.8,0.2c-0.9,0.2-1.8,0.5-2.5,0.9c-0.7,0.4-1.4,1-1.9,1.8
		c-0.5,0.7-0.8,1.7-0.9,2.8v0.4h5.4v-0.3c0.1-0.7,0.3-1.3,0.7-1.5c0.4-0.3,1-0.5,1.8-0.5c0.4,0,0.7,0,1,0.1c0.2,0.1,0.5,0.1,0.7,0.2
		c0.2,0.1,0.3,0.2,0.4,0.5c0.1,0.2,0.2,0.5,0.2,0.9s-0.1,0.6-0.2,0.7c-0.2,0.2-0.6,0.4-1,0.4c-0.5,0.1-1,0.2-1.7,0.2
		c-0.7,0.1-1.3,0.1-2,0.2c-0.7,0.1-1.3,0.2-2,0.4c-0.7,0.2-1.3,0.5-1.9,0.9c-0.6,0.4-1,0.9-1.4,1.6c-0.4,0.7-0.6,1.5-0.6,2.5
		c0,0.9,0.2,1.7,0.5,2.3c0.3,0.7,0.7,1.2,1.3,1.7s1.2,0.7,1.9,1c0.7,0.2,1.5,0.3,2.3,0.3c1,0,2.1-0.2,3.1-0.4c0.7-0.2,1.4-0.6,2-1
		c0,0.1,0,1.1,0,1.1h5V60.5C204.8,59.5,204.6,58.6,204.1,57.9 M194.8,69.1c-0.2-0.1-0.3-0.2-0.4-0.4c-0.1-0.2-0.2-0.4-0.2-0.8
		c0-0.3,0.1-0.6,0.2-0.8c0.1-0.2,0.2-0.4,0.4-0.5c0.2-0.1,0.4-0.2,0.7-0.4c0.3-0.1,0.6-0.2,0.9-0.2c0.4-0.1,0.7-0.1,1-0.1
		c0.4-0.1,0.7-0.1,1-0.2c0.3-0.1,0.7-0.2,1-0.2C199.8,69.9,196.4,69.9,194.8,69.1 M141.8,72.9h5.4V49.8h-5.4V72.9z M164.8,58
		c-0.7-0.8-1.7-1.4-2.8-1.8c-1.1-0.4-2.3-0.6-3.6-0.6c-1.3,0-2.5,0.2-3.6,0.6c-1,0.4-2,1-2.8,1.8c-0.8,0.8-1.3,1.7-1.8,2.8
		c-0.4,1.1-0.6,2.3-0.6,3.7c0,1.3,0.2,2.6,0.6,3.7c0.4,1.1,1,2,1.8,2.8c0.8,0.8,1.7,1.4,2.8,1.8c1,0.4,2.3,0.6,3.6,0.6
		c1.3,0,2.5-0.2,3.6-0.6c1.1-0.4,2-1,2.8-1.8c0.8-0.8,1.3-1.7,1.8-2.8c0.4-1.1,0.6-2.3,0.6-3.7c0-1.3-0.2-2.6-0.6-3.7
		C166.1,59.7,165.5,58.8,164.8,58 M161.6,66.3c-0.1,0.6-0.3,1-0.6,1.5c-0.2,0.4-0.6,0.7-1,1c-0.4,0.2-1,0.4-1.7,0.4
		c-0.7,0-1.2-0.1-1.6-0.4c-0.4-0.2-0.8-0.6-1-1c-0.2-0.4-0.5-0.9-0.6-1.5c-0.1-0.6-0.2-1.2-0.2-1.8c0-0.6,0.1-1.2,0.2-1.8
		c0.1-0.6,0.3-1,0.6-1.5c0.2-0.4,0.6-0.7,1-1c0.4-0.2,1-0.4,1.6-0.4c0.7,0,1.2,0.1,1.7,0.4c0.4,0.2,0.8,0.6,1,1
		c0.2,0.4,0.5,0.9,0.6,1.5c0.1,0.6,0.2,1.2,0.2,1.8C161.8,65.1,161.7,65.7,161.6,66.3 M184.6,57.7c-0.7-0.7-1.5-1.3-2.3-1.7
		c-0.9-0.4-1.7-0.6-2.6-0.6c-1,0-2.1,0.2-3.1,0.6c-0.6,0.2-1.1,0.6-1.6,1v-7.3h-5.4v23.1h5.2v-1.2c0.4,0.4,0.9,0.7,1.5,1
		c1,0.4,2.1,0.6,3.4,0.6c0.9,0,1.7-0.2,2.6-0.6c0.9-0.4,1.6-0.9,2.3-1.7c0.7-0.7,1.2-1.7,1.7-2.8c0.4-1.1,0.6-2.5,0.6-4
		c0-1.5-0.2-2.9-0.6-4C185.8,59.3,185.2,58.4,184.6,57.7 M181.2,66.3c-0.1,0.6-0.4,1-0.6,1.5c-0.2,0.4-0.6,0.7-1,1
		c-0.4,0.2-0.9,0.4-1.5,0.4c-0.6,0-1-0.1-1.4-0.4c-0.4-0.2-0.7-0.6-1-1s-0.5-0.9-0.6-1.5c-0.1-0.6-0.2-1.2-0.2-1.8s0.1-1.3,0.2-1.8
		c0.1-0.6,0.4-1,0.6-1.5c0.2-0.4,0.6-0.7,1-1c0.4-0.2,0.9-0.4,1.4-0.4c0.6,0,1,0.1,1.5,0.4c0.4,0.2,0.7,0.6,1,1
		c0.3,0.4,0.5,0.9,0.6,1.5c0.1,0.6,0.2,1.2,0.2,1.8C181.5,65.1,181.3,65.7,181.2,66.3 M207.8,72.9h5.4V49.8h-5.4V72.9z"/>
	<path class="st3" d="M208.2,23.9v16.8c0,0.1,0.1,0.1,0.1,0.2l21.5,15.5c0.1,0.1,0.2,0.2,0.3,0.4c0,0,0,0.1,0.1,0.1l0,0
		c0,0.1,0.1,0.2,0.1,0.2c0,0.3-0.1,0.7-0.6,1l-3.9,2.9c-0.1,0.1-0.1,0.1-0.2,0.1c-0.3,0.2-0.9,0.6-1.5,1.1l-4,2.9
		c-0.1,0.1-0.1,0.1-0.1,0.2v4c0,0.1,0,0.3,0,0.6v1c0,1.7,0,5,0,6.2c0,0.2,0,0.4,0,0.6v2.9v0.1v0.1c0,0.1,0,0.2,0,0.3v0.1
		c0,0.1,0.1,0.2,0.2,0.2c0.1,0,0.1,0,0.1-0.1l22.6-16.5c0.1-0.1,0.1-0.1,0.1-0.2v-7c0-3.1,0-6.6,0-8.8v-0.2c0-0.1,0-0.1-0.1-0.1
		c-0.3-0.2-1.8-1.3-3.9-2.8l-17-12.3c-2.6-1.9-5.3-3.8-7.9-5.7c-0.8-0.6-1.6-1.2-2.5-1.8l-3.1-2.2c-0.1-0.1-0.1-0.1-0.1-0.1
		c-0.1,0-0.1-0.1-0.1-0.1C208.3,23.7,208.2,23.8,208.2,23.9"/>
</g>
<g class="st4">
	<path class="st5" d="M180,14.7c-24.1,0-43.7,19.7-43.7,43.8s19.7,43.8,43.7,43.8s43.7-19.7,43.7-43.8S204.1,14.7,180,14.7z
		 M180,99.4c-22.5,0-40.9-18.3-40.9-40.9s18.4-40.9,40.9-40.9s40.9,18.3,40.9,40.9S202.5,99.4,180,99.4z"/>
	<polygon class="st5" points="155.7,57.9 153.5,58.3 154.1,63.5 151.6,63.7 151.1,58.7 148.8,58.9 149.4,64 147,64.3 146.4,59.1 
		144.2,59.3 145,66.9 156.6,65.5 	"/>
	<path class="st5" d="M157.7,49.3c0.1-0.2,0.1-0.4,0.1-0.7s0-0.4-0.1-0.6c0-0.1-0.1-0.2-0.1-0.4c-0.1-0.2-0.1-0.3-0.2-0.5
		c-0.1-0.2-0.2-0.4-0.2-0.5c-0.1-0.2-0.2-0.3-0.2-0.4c-0.1-0.2-0.3-0.3-0.5-0.4c-0.2-0.1-0.4-0.2-0.6-0.2l-5.3-2
		c-0.2-0.1-0.4-0.1-0.6-0.1c-0.2,0-0.4,0-0.7,0.1c-0.1,0-0.2,0.1-0.4,0.1c-0.2,0.1-0.3,0.1-0.5,0.2c-0.2,0.1-0.4,0.1-0.5,0.2
		c-0.2,0.1-0.3,0.2-0.4,0.2c-0.2,0.1-0.3,0.3-0.5,0.5c-0.2,0.2-0.2,0.4-0.3,0.6l-2,5.5l10.9,3.9L157.7,49.3z M154.4,51.8l-6.6-2.4
		l1.2-3.1c0.1-0.1,0.2-0.2,0.4-0.2c0.1-0.1,0.4-0.1,0.6-0.1l5.2,1.9c0.1,0.2,0.2,0.3,0.3,0.5c0.1,0.2,0.1,0.3,0.1,0.4L154.4,51.8z"
		/>
	<path class="st5" d="M161.9,42.3l-4.5-5.3l4.2,1.9l1.2-1c-0.2-0.7-0.4-1.5-0.6-2.3c-0.2-0.7-0.4-1.5-0.6-2.3l4.5,5.3l1.8-1.5
		l-7.5-8.8l-2,1.7c0.2,0.9,0.5,1.9,0.7,2.8c0.2,0.9,0.5,1.9,0.7,2.8l-5.4-2.3l-2,1.7l7.6,8.8L161.9,42.3z"/>
	<path class="st5" d="M170.1,32.9c0.1,0.2,0.1,0.4,0.2,0.6c0.1,0.2,0.2,0.4,0.4,0.6c0.1,0.1,0.2,0.2,0.3,0.2
		c0.1,0.1,0.3,0.2,0.4,0.3c0.2,0.1,0.3,0.2,0.5,0.3c0.2,0.1,0.3,0.2,0.4,0.2c0.2,0.1,0.4,0.1,0.6,0.1s0.5,0,0.7,0l2.9-0.6
		c0.2-0.1,0.4-0.1,0.7-0.2c0.2-0.1,0.4-0.2,0.6-0.4c0.1-0.1,0.2-0.2,0.3-0.4c0.1-0.1,0.2-0.3,0.3-0.5c0.1-0.2,0.2-0.3,0.3-0.5
		c0.1-0.1,0.1-0.3,0.2-0.4c0.1-0.2,0.1-0.4,0.1-0.6c0-0.2,0-0.4-0.1-0.6l-1.1-5.7c-0.1-0.2-0.1-0.4-0.2-0.6
		c-0.1-0.2-0.2-0.4-0.4-0.6c-0.1-0.1-0.2-0.1-0.3-0.2c-0.1-0.1-0.3-0.2-0.4-0.3c-0.2-0.1-0.3-0.2-0.5-0.3c-0.2-0.1-0.3-0.2-0.4-0.2
		c-0.2-0.1-0.4-0.1-0.6-0.1c-0.2,0-0.5,0-0.7,0l-2.9,0.6c-0.2,0.1-0.4,0.1-0.7,0.2c-0.2,0.1-0.4,0.2-0.5,0.4
		c-0.1,0.1-0.2,0.2-0.3,0.4c-0.1,0.1-0.2,0.3-0.3,0.5c-0.1,0.2-0.2,0.3-0.3,0.5c-0.1,0.1-0.2,0.2-0.2,0.4c-0.1,0.2-0.1,0.4-0.1,0.6
		c0,0.2,0,0.4,0.1,0.6L170.1,32.9z M171.6,26.3c0.1-0.2,0.2-0.2,0.2-0.4l2.8-0.6c0.1,0,0.1,0.1,0.2,0.1c0.1,0.1,0.1,0.1,0.2,0.1
		c0.1,0.1,0.1,0.1,0.2,0.2c0.1,0.1,0.1,0.1,0.2,0.2l1.1,5.7c-0.1,0.2-0.2,0.3-0.3,0.5c-0.1,0.2-0.2,0.3-0.3,0.4l-2.8,0.5
		c-0.1,0-0.1-0.1-0.2-0.1c-0.1-0.1-0.1-0.1-0.2-0.1s-0.1-0.1-0.2-0.2c-0.1-0.1-0.1-0.1-0.2-0.2l-1.1-5.7
		C171.4,26.6,171.5,26.4,171.6,26.3z"/>
	<polygon class="st5" points="186.8,28.2 188.4,35.8 190.6,36.6 194,25.5 191.7,24.8 189.7,31.4 188.2,23.7 185.9,23 182.5,34.1 
		184.8,34.8 	"/>
	<polygon class="st5" points="197,41.4 203.4,34.7 205.7,36.8 207.2,35.1 200.9,29.2 199.4,30.9 201.7,33 195.3,39.8 	"/>
	<path class="st5" d="M203.1,44.9c-0.2,0.1-0.3,0.2-0.5,0.4c-0.1,0.1-0.1,0.2-0.2,0.4c-0.1,0.2-0.2,0.3-0.2,0.5
		c-0.1,0.2-0.2,0.4-0.2,0.5c-0.1,0.2-0.1,0.3-0.1,0.4c-0.1,0.2-0.1,0.4-0.1,0.6c0,0.2,0.1,0.5,0.1,0.7l1,2.8
		c0.1,0.2,0.2,0.4,0.4,0.6c0.1,0.2,0.3,0.4,0.4,0.4c0.1,0.1,0.2,0.2,0.4,0.2c0.2,0.1,0.3,0.2,0.5,0.2c0.2,0.1,0.4,0.1,0.5,0.2
		c0.2,0.1,0.3,0.1,0.4,0.1c0.2,0.1,0.4,0.1,0.6,0.1c0.2,0,0.4-0.1,0.6-0.1l5.5-2c0.2-0.1,0.4-0.2,0.6-0.3c0.2-0.1,0.3-0.2,0.4-0.4
		c0.1-0.1,0.1-0.2,0.2-0.4c0.1-0.1,0.2-0.3,0.2-0.5c0.1-0.2,0.2-0.4,0.2-0.5c0.1-0.2,0.1-0.3,0.1-0.4c0.1-0.2,0.1-0.4,0.1-0.6
		c0-0.2-0.1-0.5-0.1-0.7l-1-2.8c-0.1-0.2-0.2-0.4-0.4-0.6c-0.1-0.2-0.3-0.3-0.4-0.4c-0.1-0.1-0.2-0.2-0.4-0.2
		c-0.2-0.1-0.4-0.2-0.5-0.2c-0.2-0.1-0.4-0.1-0.5-0.2c-0.2-0.1-0.3-0.1-0.4-0.1c-0.2-0.1-0.4-0.1-0.6-0.1c-0.2,0-0.4,0.1-0.6,0.2
		l-5.5,2C203.5,44.7,203.3,44.7,203.1,44.9z M204.1,47.5c0-0.1,0.1-0.1,0.1-0.2c0.1-0.1,0.1-0.2,0.1-0.2c0.1-0.1,0.1-0.2,0.1-0.2
		l5.5-2c0.2,0.1,0.4,0.1,0.6,0.2c0.2,0.1,0.3,0.2,0.4,0.2l1,2.6c0,0.1-0.1,0.1-0.1,0.2s-0.1,0.2-0.1,0.2c-0.1,0.1-0.1,0.2-0.1,0.2
		s-0.1,0.1-0.1,0.2l-5.5,2c-0.2-0.1-0.4-0.1-0.5-0.2c-0.2-0.1-0.3-0.2-0.4-0.2l-1-2.6C204,47.7,204,47.6,204.1,47.5z"/>
	<polygon class="st5" points="216,58.6 204.5,57 204.2,59.4 211,60.3 203.7,63.1 203.4,65.4 214.9,67 215.2,64.6 208.3,63.7 
		215.7,61 	"/>
	<path class="st5" d="M166.5,77.4c-0.9,0.4-1.8,0.7-2.6,1.2c-0.9,0.4-1.8,0.8-2.7,1.2l1.5-5.7l-2-1.7l-7.6,8.8l1.8,1.5l4.5-5.3
		l-1.2,4.5l1.2,1c0.7-0.3,1.4-0.6,2.2-0.9s1.4-0.6,2.2-0.9l-4.5,5.3l1.8,1.5l7.6-8.8L166.5,77.4z"/>
	<path class="st5" d="M173.9,80.9l-6.1,10.6l2.5,0.5c0.2-0.3,0.4-0.7,0.6-1c0.2-0.4,0.4-0.7,0.6-1l4,0.7l0.4,2.3l2.5,0.5l-1.8-12.2
		L173.9,80.9z M172.6,87.9c0.3-0.6,0.7-1.2,1-1.7s0.7-1.2,1-1.7l0.6,3.9L172.6,87.9z"/>
	<path class="st5" d="M193.3,87.7l-1.7-5.5c-0.1-0.2-0.1-0.4-0.2-0.6c-0.1-0.2-0.2-0.4-0.4-0.5c-0.1-0.1-0.2-0.1-0.3-0.2
		c-0.1-0.1-0.3-0.2-0.5-0.3c-0.2-0.1-0.3-0.2-0.5-0.2c-0.2-0.1-0.3-0.1-0.4-0.2c-0.2-0.1-0.4-0.1-0.7-0.1s-0.4,0.1-0.7,0.1l-5.5,1.7
		l3.4,11.1l5.5-1.7c0.2-0.1,0.4-0.2,0.6-0.3s0.4-0.3,0.5-0.4c0.1-0.1,0.2-0.2,0.2-0.4c0.1-0.2,0.2-0.3,0.3-0.5
		c0.1-0.2,0.2-0.3,0.2-0.5c0.1-0.2,0.1-0.3,0.2-0.4c0.1-0.2,0.1-0.4,0.1-0.6C193.4,88,193.3,87.9,193.3,87.7z M190.8,88.8
		c-0.1,0.1-0.2,0.2-0.3,0.4l-3.2,1l-2.1-6.8l3.2-1c0.2,0.1,0.3,0.1,0.5,0.2c0.1,0.1,0.3,0.2,0.4,0.4l1.7,5.3
		C191,88.5,190.9,88.7,190.8,88.8z"/>
	<polygon class="st5" points="201.3,83.1 199.6,81.4 203.2,77.8 201.6,76.2 198,79.8 196.3,78 200.1,74.3 198.6,72.8 193.1,78 
		201.2,86.4 206.6,81 205.1,79.4 	"/>
	<rect x="173.1" y="52.4" class="st5" width="13.7" height="2.9"/>
	<rect x="173.1" y="57" class="st5" width="13.7" height="2.9"/>
	<rect x="173.1" y="61.6" class="st5" width="13.7" height="2.9"/>
</g>
</svg>
