<?xml version="1.0" encoding="utf-8"?>
<!-- Generator: Adobe Illustrator 22.1.0, SVG Export Plug-In . SVG Version: 6.00 Build 0)  -->
<svg version="1.1" id="Layer_1" xmlns="http://www.w3.org/2000/svg" xmlns:xlink="http://www.w3.org/1999/xlink" x="0px" y="0px"
	 viewBox="0 0 143 41" style="enable-background:new 0 0 143 41;" xml:space="preserve">
<style type="text/css">
	.st0{fill:#5B5B5B;}
</style>
<path id="fitset_logo_3_" class="st0" d="M140.2,11.6h-0.4c-0.7,0-1.3-0.6-1.3-1.3V9.8c0-0.7,0.6-1.3,1.3-1.3h0.4
	c0.7,0,1.3,0.6,1.3,1.3v0.4C141.5,11,140.9,11.6,140.2,11.6z M34.5,15.5c-1,0-1.6,0.6-2,1.7l-5.4,20.1c-0.3,1.3,0.3,2.2,1.4,2.2
	c1,0,1.6-0.6,2-1.7l5.4-20.1C36.3,16.3,35.6,15.5,34.5,15.5z M49.4,36.4c-0.5,0.1-1,0.2-1.5,0.2c-2,0-3.2-0.8-3.2-2.4
	c0-0.5,0.1-1.2,0.2-1.7l5.8-20.8h48.5c0.9,0,1.6-0.7,1.6-1.6c0-0.9-0.7-1.6-1.6-1.6H51.5l1.4-5.2c0.3-1.3-0.3-2.2-1.4-2.2
	c-1,0-1.7,0.6-2,1.7L48,8.5h-6c-0.8,0-1.6,0.7-1.6,1.6c0,0.9,0.7,1.5,1.5,1.6h5.2l-5.8,21C41.1,33.3,41,34.2,41,35
	c0,3.1,2.4,4.7,5.8,4.7c1.2,0,2.3-0.2,3.2-0.5c0.7-0.3,1.1-0.8,1.1-1.6C51.1,36.7,50.4,36.1,49.4,36.4z M21.8,17.8l-11.4,0.1
	l3.9-13.4h18.3c0.9,0,1.7-0.8,1.7-1.7s-0.8-1.6-1.7-1.6H13.2c-1,0-1.8,0.7-2.1,1.8L1.6,37.4c-0.4,1.2,0.4,2.1,1.5,2.1
	c1,0,1.8-0.8,2.1-1.8l4.4-16.5l12.2-0.1c0.9,0,1.7-0.7,1.7-1.6S22.7,17.8,21.8,17.8z M134.5,8.5h-15.2l1.4-5.1
	c0.3-1.3-0.3-2.2-1.4-2.2c-1,0-1.7,0.6-2,1.7l-1.5,5.6h-6.4c-0.9,0-1.6,0.7-1.6,1.6c0,0.9,0.7,1.6,1.6,1.6h5.5l-5.8,21
	c-0.2,0.7-0.3,1.6-0.3,2.5c0,3.1,2.4,4.7,5.8,4.7c1.2,0,2.3-0.2,3.2-0.5c0.7-0.3,1.1-0.8,1.1-1.6c0-1-0.7-1.5-1.7-1.3
	c-0.5,0.1-1,0.2-1.5,0.2c-2,0-3.2-0.8-3.2-2.4c0-0.5,0.1-1.2,0.2-1.7l5.8-20.8h16c0.8,0,1.5-0.7,1.5-1.6
	C136,9.2,135.4,8.5,134.5,8.5z M76.7,17.6c-1.6-1.2-4.7-2.4-7.6-2.4c-5.5,0-8.9,3.2-8.9,7.3c0,3.3,2.4,4.8,6.7,6.5
	c3.4,1.3,4.5,2.5,4.5,4c0,2.4-2.5,3.9-5.2,3.9c-2.6,0-5.1-0.8-7.5-2.8c-0.4-0.3-0.8-0.5-1.2-0.5c-0.8,0-1.5,0.7-1.5,1.6
	c0,0.5,0.3,1,0.7,1.4c2.6,2.1,5.8,3.2,9.2,3.2c5,0,9-3.1,9-7.4c0-3.1-2.2-4.7-6.4-6.5c-3.7-1.5-4.7-2.5-4.7-4c0-2,1.8-3.7,5.1-3.7
	c2.3,0,4.3,0.9,6.3,2.1c0.3,0.2,0.6,0.4,1,0.4c0.9,0,1.6-0.7,1.6-1.6C77.5,18.4,77.2,17.9,76.7,17.6z M103.5,24.2
	c0,1.1-0.2,2.2-0.3,2.9c-0.2,1-0.8,1.6-1.9,1.6H84.2c0,0.4,0,0.8,0,1.1c0,4.2,2.8,6.9,7.1,6.9c2.5,0,4.6-0.7,6.4-2.2
	c0.3-0.2,0.8-0.4,1.2-0.4c0.8,0,1.4,0.6,1.4,1.4c0,0.5-0.3,1-0.7,1.3c-2.2,1.8-5,2.9-8.5,2.9c-6.3,0-10.4-4.1-10.4-10
	c0-7.2,5.8-14.6,13.7-14.6C100.4,15.2,103.5,19.3,103.5,24.2z M100.1,24.2c0-3.2-1.8-6.1-5.9-6.1c-4.7,0-8.3,3.6-9.5,7.9h15.2
	C100,25.6,100.1,25.1,100.1,24.2z"/>
</svg>
